<svg xmlns="http://www.w3.org/2000/svg" width="248.962" height="119.629" viewBox="0 0 248.962 119.629">
  <defs>
    <style>
      .cls-1 {
        fill: #f7fcf5;
        opacity: 0.1;
      }
    </style>
  </defs>
  <g id="backgroundCardTotal" transform="translate(-1410 -202)">
    <path id="Icon_awesome-money-bill-alt" data-name="Icon awesome-money-bill-alt" class="cls-1" d="M236.514,4.5H12.448C5.574,4.5,0,8.964,0,14.469V114.16c0,5.5,5.574,9.969,12.448,9.969H236.514c6.874,0,12.448-4.464,12.448-9.969V14.469C248.962,8.964,243.387,4.5,236.514,4.5ZM12.448,114.16V94.222c13.751,0,24.9,8.925,24.9,19.938Zm0-79.753V14.469h24.9C37.344,25.482,26.2,34.407,12.448,34.407Zm112.033,64.8c-20.625,0-37.344-15.623-37.344-34.892s16.719-34.892,37.344-34.892,37.344,15.62,37.344,34.892S145.1,99.207,124.481,99.207ZM236.514,114.16h-24.9c0-11.013,11.145-19.938,24.9-19.938Zm0-79.753c-13.751,0-24.9-8.925-24.9-19.938h24.9Z" transform="translate(1410 197.5)"/>
    <path id="Icon_metro-money" data-name="Icon metro-money" class="cls-1" d="M38.506,24.5c-11.513-1.35-15.215-2.734-15.215-4.908,0-2.494,5.1-4.245,13.694-4.245,9.028,0,12.375,1.945,12.679,4.805H60.872c-.33-3.947-5.68-7.54-16.28-8.718V6.427H29.377v4.942c-9.839.972-17.751,3.833-17.751,8.26,0,5.286,9.712,7.917,23.837,9.45,12.7,1.373,15.215,3.375,15.215,5.526,0,1.567-2.46,4.084-13.694,4.084-10.448,0-14.581-2.117-15.114-4.805H10.688c.634,5.011,8.926,7.814,18.689,8.764v4.965H44.592v-4.92c9.865-.858,17.751-3.432,17.751-8.135C62.343,28.084,50.019,25.865,38.506,24.5Z" transform="translate(1497.194 234.794)"/>
  </g>
</svg>
