<svg xmlns="http://www.w3.org/2000/svg" width="712.961" height="119.629" viewBox="0 0 712.961 119.629">
  <defs>
    <style>
      .cls-1 {
        opacity: 0.1;
      }

      .cls-2 {
        fill: #f7fcf5;
      }
    </style>
  </defs>
  <g id="backgroundCardTotal_2" data-name="backgroundCardTotal@2" class="cls-1" transform="translate(-1410 -202)">
    <path id="Icon_awesome-money-bill-alt" data-name="Icon awesome-money-bill-alt" class="cls-2" d="M704.951,4.5H8.343C3.736,4.5,0,8.964,0,14.469V114.16c0,5.5,3.736,9.969,8.343,9.969H707.058c5.478-1.7,5.9-1.227,5.9-6.732V14.469C712.961,8.964,709.558,4.5,704.951,4.5ZM8.343,114.16V94.222c9.216,0,16.686,8.925,16.686,19.938Zm0-79.753V14.469H25.029C25.029,25.482,17.559,34.407,8.343,34.407ZM355.895,99.479c-13.823,0-25.029-15.623-25.029-34.892s11.206-34.892,25.029-34.892,25.029,15.62,25.029,34.892S369.713,99.479,355.895,99.479ZM704.951,114.16H688.266c0-11.013,7.469-19.938,16.686-19.938Zm0-79.753c-9.216,0-16.686-8.925-16.686-19.938h16.686Z" transform="translate(1410 197.5)"/>
    <path id="Icon_metro-money" data-name="Icon metro-money" class="cls-2" d="M38.506,24.5c-11.513-1.35-15.215-2.734-15.215-4.908,0-2.494,5.1-4.245,13.694-4.245,9.028,0,12.375,1.945,12.679,4.805H60.872c-.33-3.947-5.68-7.54-16.28-8.718V6.427H29.377v4.942c-9.839.972-17.751,3.833-17.751,8.26,0,5.286,9.712,7.917,23.837,9.45,12.7,1.373,15.215,3.375,15.215,5.526,0,1.567-2.46,4.084-13.694,4.084-10.448,0-14.581-2.117-15.114-4.805H10.688c.634,5.011,8.926,7.814,18.689,8.764v4.965H44.592v-4.92c9.865-.858,17.751-3.432,17.751-8.135C62.343,28.084,50.019,25.865,38.506,24.5Z" transform="translate(1729.847 234.794)"/>
  </g>
</svg>
