<svg xmlns="http://www.w3.org/2000/svg" width="31.924" height="31.924" viewBox="0 0 31.924 31.924">
  <defs>
    <style>
      .cls-1 {
        fill: #338ae8;
      }
    </style>
  </defs>
  <path id="IconNovaTransacao" class="cls-1" d="M6.192,9.385H3V31.732a3.2,3.2,0,0,0,3.192,3.192H28.539V31.732H6.192ZM31.732,3H12.577A3.2,3.2,0,0,0,9.385,6.192V25.347a3.2,3.2,0,0,0,3.192,3.192H31.732a3.2,3.2,0,0,0,3.192-3.192V6.192A3.2,3.2,0,0,0,31.732,3Zm-1.6,14.366H23.751v6.385H20.558V17.366H14.173V14.173h6.385V7.789h3.192v6.385h6.385Z" transform="translate(-3 -3)"/>
</svg>
