<svg xmlns="http://www.w3.org/2000/svg" width="19" height="33.579" viewBox="0 0 19 33.579">
  <defs>
    <style>
      .cls-1 {
        fill: #fff;
      }
    </style>
  </defs>
  <path id="IconMoney" class="cls-1" d="M20.92,21.164c-4.235-1.1-5.6-2.229-5.6-4,0-2.033,1.875-3.46,5.037-3.46,3.321,0,4.552,1.586,4.664,3.918h4.123a7.426,7.426,0,0,0-5.988-7.108V6.427h-5.6v4.029c-3.619.793-6.529,3.125-6.529,6.734,0,4.309,3.572,6.455,8.768,7.7,4.673,1.119,5.6,2.752,5.6,4.505,0,1.278-.9,3.33-5.037,3.33C16.517,32.73,15,31,14.8,28.813H10.688c.233,4.085,3.283,6.371,6.874,7.145v4.048h5.6V35.995c3.628-.7,6.529-2.8,6.529-6.632,0-5.279-4.533-7.089-8.768-8.2Z" transform="translate(-10.688 -6.427)"/>
</svg>
