<svg xmlns="http://www.w3.org/2000/svg" width="20" height="20" viewBox="0 0 20 20">
  <defs>
    <style>
      .cls-1{
        fill: #039767;
      }
    </style>
  </defs>
  <g id="ImgNovaTransacao" transform="translate(-448.257 -403)">
    <path id="IconNovaTransacao" class="cls-1" d="M5,7H3V21a2.006,2.006,0,0,0,2,2H19V21H5ZM21,3H9A2.006,2.006,0,0,0,7,5V17a2.006,2.006,0,0,0,2,2H21a2.006,2.006,0,0,0,2-2V5A2.006,2.006,0,0,0,21,3Zm-1,9H16v4H14V12H10V10h4V6h2v4h4Z" transform="translate(445.257 400)"/>
  </g>
</svg>
